<svg id="Capa_1" enable-background="new 0 0 497 497" height="512" viewBox="0 0 497 497" width="512" xmlns="http://www.w3.org/2000/svg"><g><path d="m478.725 497h-460.45c-10.093 0-18.275-8.182-18.275-18.275v-460.45c0-10.093 8.182-18.275 18.275-18.275h460.449c10.094 0 18.276 8.182 18.276 18.275v460.449c0 10.094-8.182 18.276-18.275 18.276z" fill="#26a6fe"/><path d="m478.725 0h-30c10.093 0 18.275 8.182 18.275 18.275v460.449c0 10.093-8.182 18.275-18.275 18.275h30c10.093 0 18.275-8.182 18.275-18.275v-460.449c0-10.093-8.182-18.275-18.275-18.275z" fill="#0593fc"/><path d="m314.338 419.774c-21.841 0-39.547-17.706-39.547-39.547v-55.809c0-7.628-6.184-13.812-13.812-13.812h-24.958c-7.628 0-13.812 6.184-13.812 13.812v55.809c0 21.841-17.706 39.547-39.547 39.547h-44.799c-21.841 0-39.547-17.706-39.547-39.547v-263.455c0-21.841 17.706-39.547 39.547-39.547h44.799c21.841 0 39.547 17.706 39.547 39.547v47.271c0 7.628 6.184 13.812 13.812 13.812h24.958c7.628 0 13.812-6.184 13.812-13.812v-47.271c0-21.841 17.706-39.547 39.547-39.547h44.798c21.841 0 39.547 17.706 39.547 39.547v263.455c0 21.841-17.706 39.547-39.547 39.547z" fill="#0182fc"/><path d="m359.136 77.226h-30c21.841 0 39.547 17.706 39.547 39.547v263.455c0 21.841-17.706 39.547-39.547 39.547h30c21.841 0 39.547-17.706 39.547-39.547v-263.455c0-21.842-17.705-39.547-39.547-39.547z" fill="#0172fb"/><path d="m300.596 116.773v73.146c0 7.589-6.152 13.742-13.742 13.742h-76.707c-7.59 0-13.742-6.153-13.742-13.742v-73.146c0-7.59-6.152-13.742-13.742-13.742h-44.799c-7.589 0-13.742 6.153-13.742 13.742v86.888 81.141 95.426c0 7.59 6.153 13.742 13.742 13.742h44.799c7.59 0 13.742-6.152 13.742-13.742v-81.684c0-7.589 6.153-13.742 13.742-13.742h76.707c7.59 0 13.742 6.153 13.742 13.742v81.684c0 7.59 6.152 13.742 13.742 13.742h44.799c7.59 0 13.742-6.152 13.742-13.742v-95.426-81.142-86.888c0-7.59-6.152-13.742-13.742-13.742h-44.799c-7.59.001-13.742 6.153-13.742 13.743z" fill="#efe2dd"/><path d="m166.404 116.773v73.146c0 7.589 6.152 13.742 13.742 13.742h30c-7.59 0-13.742-6.153-13.742-13.742v-73.146c0-7.59-6.153-13.742-13.742-13.742h-30c7.59 0 13.742 6.152 13.742 13.742z" fill="#e1d3ce"/><path d="m166.404 298.544v81.684c0 7.589-6.153 13.742-13.742 13.742h30c7.589 0 13.742-6.153 13.742-13.742v-81.684c0-7.589 6.152-13.742 13.742-13.742h-30c-7.589 0-13.742 6.152-13.742 13.742z" fill="#e1d3ce"/><path d="m359.136 103.031h-30c7.589 0 13.742 6.152 13.742 13.742v86.888 81.141 95.426c0 7.589-6.153 13.742-13.742 13.742h30c7.589 0 13.742-6.153 13.742-13.742v-95.426-81.142-86.888c0-7.589-6.152-13.741-13.742-13.741z" fill="#e1d3ce"/><g fill="#ffeee8"><circle cx="42.881" cy="41.071" r="7.5"/><circle cx="454.119" cy="41.071" r="7.5"/><circle cx="42.881" cy="455.93" r="7.5"/><circle cx="454.119" cy="455.93" r="7.5"/></g><path d="m124.122 241.847v42.954 95.426c0 7.59 6.153 13.742 13.742 13.742h44.799c7.59 0 13.742-6.152 13.742-13.742v-81.684c0-7.589 6.153-13.742 13.742-13.742h76.707c7.59 0 13.742 6.153 13.742 13.742v81.684c0 7.59 6.152 13.742 13.742 13.742h44.799c7.59 0 13.742-6.152 13.742-13.742v-95.426-81.141-86.888c0-7.59-6.152-13.742-13.742-13.742h-44.799c-7.59 0-13.742 6.153-13.742 13.742v73.146c0 7.589-6.152 13.742-13.742 13.742h-76.707c-7.59 0-13.742-6.153-13.742-13.742v-73.146c0-7.59-6.152-13.742-13.742-13.742h-44.799c-7.589 0-13.742 6.153-13.742 13.742v86.888 8.187" fill="none"/></g></svg>